<svg width="450" height="300" viewBox="0 0 450 300" xmlns="http://www.w3.org/2000/svg">
  <rect width="100%" height="100%" fill="#E8E0D5" />
  
  <path d="M 108,45 C 66,45, 66,132.5, 108,167.5 C 150,202.5, 150,255, 108,255 L 192,255 C 234,255, 234,202.5, 192,167.5 C 150,132.5, 150,45, 192,45 Z" fill="#C1292E" stroke="#C1292E" stroke-width="6" />
  
  <path d="M 258,45 C 216,45, 216,132.5, 258,167.5 C 300,202.5, 300,255, 258,255 L 342,255 C 384,255, 384,202.5, 342,167.5 C 300,132.5, 300,45, 342,45 Z" fill="#C1292E" stroke="#C1292E" stroke-width="6" />
</svg>