<svg width="450" height="300" viewBox="0 0 450 300" xmlns="http://www.w3.org/2000/svg">
  <rect width="100%" height="100%" fill="#E8E0D5" />
  
  <path d="M 33,45 C -9,45, -9,132.5, 33,167.5 C 75,202.5, 75,255, 33,255 L 117,255 C 159,255, 159,202.5, 117,167.5 C 75,132.5, 75,45, 117,45 Z" fill="#008F4C" stroke="#008F4C" stroke-width="6" />
  
  <path d="M 183,45 C 141,45, 141,132.5, 183,167.5 C 225,202.5, 225,255, 183,255 L 267,255 C 309,255, 309,202.5, 267,167.5 C 225,132.5, 225,45, 267,45 Z" fill="#008F4C" stroke="#008F4C" stroke-width="6" />
  
  <path d="M 333,45 C 291,45, 291,132.5, 333,167.5 C 375,202.5, 375,255, 333,255 L 417,255 C 459,255, 459,202.5, 417,167.5 C 375,132.5, 375,45, 417,45 Z" fill="#008F4C" stroke="#008F4C" stroke-width="6" />
</svg>